<?xml version="1.0" encoding="UTF-8" standalone="no"?>
<!-- Created with Inkscape (http://www.inkscape.org/) -->

<svg
   xmlns:dc="http://purl.org/dc/elements/1.1/"
   xmlns:cc="http://creativecommons.org/ns#"
   xmlns:rdf="http://www.w3.org/1999/02/22-rdf-syntax-ns#"
   xmlns:svg="http://www.w3.org/2000/svg"
   xmlns="http://www.w3.org/2000/svg"
   xmlns:sodipodi="http://sodipodi.sourceforge.net/DTD/sodipodi-0.dtd"
   xmlns:inkscape="http://www.inkscape.org/namespaces/inkscape"
   width="300mm"
   height="300mm"
   viewBox="0 0 1062.9921 1062.9921"
   id="svg2"
   version="1.1"
   inkscape:version="0.91 r13725"
   inkscape:export-filename="/Users/bellapalumbi/Desktop/Independent Study 2018/Unity Projects/puzzlegame/Images/beehive.png"
   inkscape:export-xdpi="90"
   inkscape:export-ydpi="90"
   sodipodi:docname="beehive.svg">
  <defs
     id="defs4" />
  <sodipodi:namedview
     id="base"
     pagecolor="#ffffff"
     bordercolor="#666666"
     borderopacity="1.0"
     inkscape:pageopacity="0.0"
     inkscape:pageshadow="2"
     inkscape:zoom="0.64675411"
     inkscape:cx="462.55952"
     inkscape:cy="599.62521"
     inkscape:document-units="px"
     inkscape:current-layer="layer1"
     showgrid="false"
     inkscape:window-width="1440"
     inkscape:window-height="851"
     inkscape:window-x="0"
     inkscape:window-y="1"
     inkscape:window-maximized="1" />
  <metadata
     id="metadata7">
    <rdf:RDF>
      <cc:Work
         rdf:about="">
        <dc:format>image/svg+xml</dc:format>
        <dc:type
           rdf:resource="http://purl.org/dc/dcmitype/StillImage" />
        <dc:title></dc:title>
      </cc:Work>
    </rdf:RDF>
  </metadata>
  <g
     inkscape:label="Layer 1"
     inkscape:groupmode="layer"
     id="layer1"
     transform="translate(0,10.629921)">
    <g
       id="g4156">
      <path
         d="M 859.67758,318.69849 A 304.59799,79.62841 0 0 1 591.66907,397.7503 304.59799,79.62841 0 0 1 259.27214,337.6905 304.59799,79.62841 0 0 1 447.42305,244.20946 304.59799,79.62841 0 0 1 825.02281,281.81065"
         sodipodi:open="true"
         sodipodi:end="5.8015268"
         sodipodi:start="0"
         sodipodi:ry="79.62841"
         sodipodi:rx="304.59799"
         sodipodi:cy="318.69849"
         sodipodi:cx="555.07959"
         sodipodi:type="arc"
         id="path4144"
         style="opacity:1;fill:#ffcc00;fill-opacity:0.8659218;stroke:none;stroke-width:10;stroke-miterlimit:4;stroke-dasharray:none;stroke-opacity:1" />
      <path
         d="M 833.39243,222.06206 A 272.12814,61.847305 0 0 1 593.95336,283.46152 272.12814,61.847305 0 0 1 296.98961,236.81314 272.12814,61.847305 0 0 1 465.08383,164.20651 272.12814,61.847305 0 0 1 802.43182,193.41132"
         sodipodi:open="true"
         sodipodi:end="5.8015268"
         sodipodi:start="0"
         sodipodi:ry="61.847305"
         sodipodi:rx="272.12814"
         sodipodi:cy="222.06206"
         sodipodi:cx="561.26428"
         sodipodi:type="arc"
         id="path4146"
         style="opacity:1;fill:#ffcc00;fill-opacity:0.86033517;stroke:none;stroke-width:10;stroke-miterlimit:4;stroke-dasharray:none;stroke-opacity:1" />
      <path
         d="M 771.54518,146.2991 A 219.55794,64.939674 0 0 1 578.36139,210.76854 219.55794,64.939674 0 0 1 338.76563,161.78774 219.55794,64.939674 0 0 1 474.3871,85.550771 219.55794,64.939674 0 0 1 746.5656,116.21582"
         sodipodi:open="true"
         sodipodi:end="5.8015268"
         sodipodi:start="0"
         sodipodi:ry="64.939674"
         sodipodi:rx="219.55794"
         sodipodi:cy="146.2991"
         sodipodi:cx="551.98724"
         sodipodi:type="arc"
         id="path4148"
         style="opacity:1;fill:#ffcc00;fill-opacity:0.84916198;stroke:none;stroke-width:10;stroke-miterlimit:4;stroke-dasharray:none;stroke-opacity:1" />
      <path
         d="M 898.33212,428.47745 A 337.06784,88.905502 0 0 1 601.75417,516.73918 337.06784,88.905502 0 0 1 233.92404,449.68212 337.06784,88.905502 0 0 1 442.13166,345.31009 337.06784,88.905502 0 0 1 859.98319,387.29201"
         sodipodi:open="true"
         sodipodi:end="5.8015268"
         sodipodi:start="0"
         sodipodi:ry="88.905502"
         sodipodi:rx="337.06784"
         sodipodi:cy="428.47745"
         sodipodi:cx="561.26428"
         sodipodi:type="arc"
         id="path4150"
         style="opacity:1;fill:#ffcc00;fill-opacity:0.8659218;stroke:none;stroke-width:10;stroke-miterlimit:4;stroke-dasharray:none;stroke-opacity:1" />
      <path
         d="M 953.99469,556.03741 A 391.1842,123.69462 0 0 1 609.80104,678.83635 391.1842,123.69462 0 0 1 182.91565,585.53957 391.1842,123.69462 0 0 1 424.55108,440.32631 391.1842,123.69462 0 0 1 909.48882,498.73593"
         sodipodi:open="true"
         sodipodi:end="5.8015268"
         sodipodi:start="0"
         sodipodi:ry="123.69462"
         sodipodi:rx="391.1842"
         sodipodi:cy="556.03741"
         sodipodi:cx="562.81049"
         sodipodi:type="arc"
         id="path4154"
         style="opacity:1;fill:#ffcc00;fill-opacity:0.8659218;stroke:none;stroke-width:10;stroke-miterlimit:4;stroke-dasharray:none;stroke-opacity:1" />
    </g>
  </g>
</svg>
